<svg width="957" height="957" viewBox="0 0 957 957" fill="none" xmlns="http://www.w3.org/2000/svg">
<g clip-path="url(#clip0_4_45)">
<rect width="957" height="957" fill="white"/>
<rect y="-23" width="1279" height="980" fill="url(#paint0_linear_4_45)"/>
<g filter="url(#filter0_d_4_45)">
<g filter="url(#filter1_i_4_45)">
<path fill-rule="evenodd" clip-rule="evenodd" d="M406 219V310L458.5 359.5L510.5 310V219C633.393 224.589 669.986 323.85 670.5 371.5C670.5 406.564 666.645 428.283 657 451.5C647.083 475.369 631.96 493.579 616 507.263C581.429 536.903 538.238 545.308 510.5 544V451.5L458.5 402L406 451.5V544C386.5 544 354.87 539.781 325.5 521.5C286.054 496.948 248 448.307 248 377C248 345.617 258.595 320.609 269.5 300C301.822 238.915 366.495 219.374 406 219ZM379 325L436.5 380L379 437.5L379 514.5C354.538 508.587 336.076 496.645 321.5 483.5C285.786 451.291 275.908 405.803 276.5 380C281.7 293.6 346.833 256.667 379 249V325ZM481.5 380L539 325V249C571.167 256.667 636.3 293.6 641.5 380C642.092 405.803 632.214 451.291 596.5 483.5C581.924 496.645 563.462 508.587 539 514.5L539 437.5L481.5 380Z" fill="url(#paint1_linear_4_45)"/>
</g>
</g>
<g filter="url(#filter2_i_4_45)">
<g filter="url(#filter3_d_4_45)">
<path d="M225.095 594.928C226.207 595.669 226.856 596.642 227.041 597.847C227.226 598.959 226.948 600.071 226.207 601.183C225.558 602.017 224.724 602.48 223.705 602.573C222.686 602.666 221.713 602.48 220.786 602.017C217.265 599.7 213.465 597.893 209.388 596.596C205.403 595.299 201.094 594.65 196.461 594.65C190.808 594.65 185.526 595.669 180.615 597.708C175.796 599.654 171.58 602.527 167.966 606.326C164.352 610.033 161.526 614.434 159.487 619.531C157.541 624.628 156.568 630.234 156.568 636.35C156.568 642.651 157.587 648.397 159.626 653.586C161.665 658.683 164.491 663.084 168.105 666.791C171.812 670.498 176.074 673.324 180.893 675.27C185.712 677.216 190.901 678.189 196.461 678.189C201.002 678.189 205.264 677.54 209.249 676.243C213.326 674.946 217.126 673.185 220.647 670.961C221.574 670.405 222.547 670.22 223.566 670.405C224.678 670.498 225.558 671.007 226.207 671.934C227.041 672.953 227.319 674.065 227.041 675.27C226.856 676.382 226.253 677.262 225.234 677.911C222.917 679.394 220.184 680.784 217.033 682.081C213.882 683.378 210.546 684.398 207.025 685.139C203.504 685.973 199.982 686.39 196.461 686.39C189.789 686.39 183.534 685.185 177.696 682.776C171.858 680.367 166.669 676.984 162.128 672.629C157.587 668.181 154.02 662.899 151.425 656.783C148.923 650.667 147.672 643.856 147.672 636.35C147.672 629.122 148.923 622.496 151.425 616.473C153.927 610.357 157.402 605.075 161.85 600.627C166.298 596.179 171.487 592.704 177.418 590.202C183.349 587.7 189.696 586.449 196.461 586.449C201.743 586.449 206.84 587.19 211.751 588.673C216.662 590.156 221.11 592.241 225.095 594.928ZM311.737 649.416C311.737 656.459 310.208 662.806 307.15 668.459C304.092 674.019 299.922 678.421 294.64 681.664C289.358 684.815 283.334 686.39 276.57 686.39C269.99 686.39 264.013 684.815 258.639 681.664C253.357 678.421 249.14 674.019 245.99 668.459C242.932 662.806 241.403 656.459 241.403 649.416C241.403 642.281 242.932 635.933 245.99 630.373C249.14 624.813 253.357 620.411 258.639 617.168C264.013 613.925 269.99 612.303 276.57 612.303C283.334 612.303 289.358 613.925 294.64 617.168C299.922 620.411 304.092 624.813 307.15 630.373C310.208 635.933 311.737 642.281 311.737 649.416ZM303.397 649.416C303.397 643.763 302.238 638.759 299.922 634.404C297.605 629.956 294.408 626.481 290.331 623.979C286.346 621.384 281.759 620.087 276.57 620.087C271.566 620.087 267.025 621.384 262.948 623.979C258.87 626.481 255.627 629.956 253.218 634.404C250.901 638.759 249.743 643.763 249.743 649.416C249.743 655.069 250.901 660.073 253.218 664.428C255.627 668.783 258.87 672.258 262.948 674.853C267.025 677.355 271.566 678.606 276.57 678.606C281.759 678.606 286.346 677.355 290.331 674.853C294.408 672.258 297.605 668.783 299.922 664.428C302.238 660.073 303.397 655.069 303.397 649.416ZM390.482 582.14C391.687 582.14 392.66 582.557 393.401 583.391C394.235 584.132 394.652 585.105 394.652 586.31V680.83C394.652 681.942 394.235 682.915 393.401 683.749C392.567 684.583 391.594 685 390.482 685C389.278 685 388.258 684.583 387.424 683.749C386.683 682.915 386.312 681.942 386.312 680.83V664.289L388.675 662.343C388.675 664.938 387.98 667.671 386.59 670.544C385.2 673.324 383.208 675.919 380.613 678.328C378.111 680.737 375.146 682.683 371.717 684.166C368.381 685.649 364.767 686.39 360.875 686.39C354.667 686.39 349.06 684.768 344.056 681.525C339.145 678.282 335.253 673.88 332.38 668.32C329.508 662.76 328.071 656.412 328.071 649.277C328.071 642.234 329.508 635.933 332.38 630.373C335.253 624.72 339.145 620.319 344.056 617.168C348.968 613.925 354.528 612.303 360.736 612.303C364.536 612.303 368.15 612.998 371.578 614.388C375.007 615.778 378.019 617.678 380.613 620.087C383.301 622.496 385.386 625.276 386.868 628.427C388.444 631.485 389.231 634.682 389.231 638.018L386.312 635.933V586.31C386.312 585.198 386.683 584.225 387.424 583.391C388.258 582.557 389.278 582.14 390.482 582.14ZM361.57 678.606C366.574 678.606 370.93 677.355 374.636 674.853C378.436 672.258 381.401 668.783 383.532 664.428C385.756 659.98 386.868 654.93 386.868 649.277C386.868 643.717 385.756 638.759 383.532 634.404C381.401 629.956 378.436 626.481 374.636 623.979C370.837 621.384 366.482 620.087 361.57 620.087C356.752 620.087 352.396 621.384 348.504 623.979C344.705 626.481 341.693 629.956 339.469 634.404C337.338 638.759 336.272 643.717 336.272 649.277C336.272 654.837 337.338 659.841 339.469 664.289C341.693 668.737 344.705 672.258 348.504 674.853C352.396 677.355 356.752 678.606 361.57 678.606ZM451.426 686.39C444.291 686.39 437.989 684.861 432.522 681.803C427.055 678.745 422.792 674.482 419.734 669.015C416.676 663.548 415.147 657.154 415.147 649.833C415.147 641.956 416.676 635.238 419.734 629.678C422.885 624.118 426.916 619.855 431.827 616.89C436.831 613.832 442.113 612.303 447.673 612.303C451.75 612.303 455.689 613.044 459.488 614.527C463.38 615.917 466.809 618.048 469.774 620.921C472.832 623.701 475.241 627.13 477.002 631.207C478.855 635.284 479.875 640.01 480.06 645.385C479.967 646.497 479.504 647.47 478.67 648.304C477.836 649.045 476.863 649.416 475.751 649.416H420.012L418.344 641.91H473.11L471.303 643.578V640.798C470.932 636.443 469.542 632.736 467.133 629.678C464.724 626.62 461.805 624.303 458.376 622.728C454.947 621.153 451.38 620.365 447.673 620.365C444.893 620.365 442.02 620.921 439.055 622.033C436.182 623.145 433.541 624.906 431.132 627.315C428.815 629.632 426.916 632.643 425.433 636.35C423.95 639.964 423.209 644.273 423.209 649.277C423.209 654.744 424.321 659.702 426.545 664.15C428.769 668.598 431.966 672.119 436.136 674.714C440.399 677.309 445.449 678.606 451.287 678.606C454.53 678.606 457.449 678.143 460.044 677.216C462.639 676.289 464.909 675.085 466.855 673.602C468.801 672.027 470.423 670.405 471.72 668.737C472.739 667.903 473.759 667.486 474.778 667.486C475.705 667.486 476.492 667.857 477.141 668.598C477.882 669.339 478.253 670.173 478.253 671.1C478.253 672.212 477.79 673.185 476.863 674.019C474.083 677.355 470.469 680.274 466.021 682.776C461.573 685.185 456.708 686.39 451.426 686.39ZM497.796 613.276C499.186 613.276 500.298 613.878 501.132 615.083L550.338 678.745C550.986 679.486 551.311 680.32 551.311 681.247C551.311 682.359 550.894 683.332 550.06 684.166C549.226 685 548.253 685.417 547.141 685.417C545.843 685.417 544.685 684.815 543.666 683.61L494.321 619.948C493.765 619.299 493.487 618.465 493.487 617.446C493.487 616.241 493.904 615.268 494.738 614.527C495.664 613.693 496.684 613.276 497.796 613.276ZM497.796 685.417C496.869 685.417 495.942 685.093 495.016 684.444C494.182 683.795 493.765 682.869 493.765 681.664C493.765 680.645 494.089 679.764 494.738 679.023L518.229 648.86L522.816 655.532L501.132 683.749C500.298 684.861 499.186 685.417 497.796 685.417ZM547.141 613.276C548.345 613.276 549.272 613.647 549.921 614.388C550.662 615.037 551.033 615.871 551.033 616.89C551.033 617.353 550.94 617.817 550.755 618.28C550.662 618.743 550.43 619.16 550.06 619.531L526.569 650.389L522.26 643.717L543.666 615.083C544.685 613.878 545.843 613.276 547.141 613.276ZM611.55 587.7C618.407 587.7 624.384 588.997 629.481 591.592C634.67 594.187 638.933 597.801 642.269 602.434C645.605 606.975 648.06 612.164 649.636 618.002C651.304 623.84 652.138 629.956 652.138 636.35C652.138 645.246 650.655 653.401 647.69 660.814C644.817 668.135 640.369 674.019 634.346 678.467C628.415 682.822 620.816 685 611.55 685H576.105C574.993 685 574.02 684.583 573.186 683.749C572.352 682.915 571.935 681.942 571.935 680.83V591.87C571.935 590.758 572.352 589.785 573.186 588.951C574.02 588.117 574.993 587.7 576.105 587.7H611.55ZM610.16 676.799C618.036 676.799 624.384 674.992 629.203 671.378C634.021 667.764 637.543 662.899 639.767 656.783C642.083 650.574 643.242 643.763 643.242 636.35C643.242 630.975 642.593 625.879 641.296 621.06C640.091 616.149 638.145 611.84 635.458 608.133C632.863 604.334 629.434 601.368 625.172 599.237C621.002 597.013 615.998 595.901 610.16 595.901H579.719L580.692 594.65V678.189L579.858 676.799H610.16ZM705.731 686.39C698.596 686.39 692.294 684.861 686.827 681.803C681.36 678.745 677.097 674.482 674.039 669.015C670.981 663.548 669.452 657.154 669.452 649.833C669.452 641.956 670.981 635.238 674.039 629.678C677.19 624.118 681.221 619.855 686.132 616.89C691.136 613.832 696.418 612.303 701.978 612.303C706.055 612.303 709.994 613.044 713.793 614.527C717.685 615.917 721.114 618.048 724.079 620.921C727.137 623.701 729.546 627.13 731.307 631.207C733.16 635.284 734.18 640.01 734.365 645.385C734.272 646.497 733.809 647.47 732.975 648.304C732.141 649.045 731.168 649.416 730.056 649.416H674.317L672.649 641.91H727.415L725.608 643.578V640.798C725.237 636.443 723.847 632.736 721.438 629.678C719.029 626.62 716.11 624.303 712.681 622.728C709.252 621.153 705.685 620.365 701.978 620.365C699.198 620.365 696.325 620.921 693.36 622.033C690.487 623.145 687.846 624.906 685.437 627.315C683.12 629.632 681.221 632.643 679.738 636.35C678.255 639.964 677.514 644.273 677.514 649.277C677.514 654.744 678.626 659.702 680.85 664.15C683.074 668.598 686.271 672.119 690.441 674.714C694.704 677.309 699.754 678.606 705.592 678.606C708.835 678.606 711.754 678.143 714.349 677.216C716.944 676.289 719.214 675.085 721.16 673.602C723.106 672.027 724.728 670.405 726.025 668.737C727.044 667.903 728.064 667.486 729.083 667.486C730.01 667.486 730.797 667.857 731.446 668.598C732.187 669.339 732.558 670.173 732.558 671.1C732.558 672.212 732.095 673.185 731.168 674.019C728.388 677.355 724.774 680.274 720.326 682.776C715.878 685.185 711.013 686.39 705.731 686.39ZM752.65 612.442C753.391 612.442 754.133 612.674 754.874 613.137C755.615 613.6 756.171 614.295 756.542 615.222L780.867 673.046L779.06 674.158L803.941 615.222C804.682 613.369 806.026 612.488 807.972 612.581C808.899 612.581 809.779 612.905 810.613 613.554C811.447 614.11 811.864 614.944 811.864 616.056C811.864 616.612 811.771 617.075 811.586 617.446C811.493 617.724 811.401 618.048 811.308 618.419L784.064 682.359C783.323 684.027 782.072 684.907 780.311 685C779.477 685.093 778.643 684.907 777.809 684.444C777.068 683.888 776.512 683.193 776.141 682.359L748.758 618.419C748.665 618.234 748.573 617.956 748.48 617.585C748.387 617.214 748.341 616.844 748.341 616.473C748.341 615.454 748.712 614.527 749.453 613.693C750.194 612.859 751.26 612.442 752.65 612.442Z" fill="#A2A0A2"/>
</g>
<g filter="url(#filter4_d_4_45)">
<path d="M281.48 747.4C279.453 747.427 277.693 747.107 276.2 746.44C274.707 745.773 273.28 744.773 271.92 743.44C271.787 743.333 271.667 743.2 271.56 743.04C271.48 742.88 271.44 742.693 271.44 742.48C271.44 742.16 271.56 741.867 271.8 741.6C272.067 741.333 272.36 741.2 272.68 741.2C273 741.2 273.293 741.333 273.56 741.6C274.6 742.72 275.773 743.573 277.08 744.16C278.413 744.747 279.84 745.04 281.36 745.04C282.64 745.04 283.773 744.84 284.76 744.44C285.773 744.04 286.573 743.467 287.16 742.72C287.747 741.973 288.04 741.107 288.04 740.12C288.04 738.893 287.707 737.907 287.04 737.16C286.373 736.387 285.493 735.76 284.4 735.28C283.307 734.773 282.093 734.32 280.76 733.92C279.667 733.6 278.627 733.24 277.64 732.84C276.653 732.413 275.773 731.907 275 731.32C274.227 730.707 273.627 729.96 273.2 729.08C272.773 728.2 272.56 727.133 272.56 725.88C272.56 724.467 272.933 723.213 273.68 722.12C274.427 721.027 275.48 720.173 276.84 719.56C278.227 718.92 279.827 718.6 281.64 718.6C283.213 718.6 284.72 718.867 286.16 719.4C287.627 719.933 288.787 720.72 289.64 721.76C290.04 722.187 290.24 722.573 290.24 722.92C290.24 723.187 290.107 723.453 289.84 723.72C289.573 723.987 289.28 724.12 288.96 724.12C288.693 724.12 288.467 724.027 288.28 723.84C287.827 723.28 287.253 722.787 286.56 722.36C285.867 721.907 285.093 721.56 284.24 721.32C283.413 721.08 282.547 720.96 281.64 720.96C280.387 720.96 279.253 721.16 278.24 721.56C277.253 721.933 276.467 722.48 275.88 723.2C275.32 723.92 275.04 724.787 275.04 725.8C275.04 726.92 275.36 727.84 276 728.56C276.64 729.28 277.48 729.88 278.52 730.36C279.56 730.813 280.667 731.24 281.84 731.64C282.987 731.96 284.08 732.333 285.12 732.76C286.187 733.16 287.12 733.667 287.92 734.28C288.747 734.893 289.387 735.667 289.84 736.6C290.32 737.533 290.56 738.707 290.56 740.12C290.56 741.48 290.173 742.707 289.4 743.8C288.627 744.893 287.56 745.76 286.2 746.4C284.867 747.04 283.293 747.373 281.48 747.4ZM321.981 733C321.981 735.107 321.648 737.04 320.981 738.8C320.341 740.533 319.421 742.053 318.221 743.36C317.021 744.64 315.594 745.64 313.941 746.36C312.314 747.053 310.528 747.4 308.581 747.4C306.634 747.4 304.834 747.053 303.181 746.36C301.554 745.64 300.141 744.64 298.941 743.36C297.741 742.053 296.808 740.533 296.141 738.8C295.501 737.04 295.181 735.107 295.181 733C295.181 730.893 295.501 728.973 296.141 727.24C296.808 725.48 297.741 723.96 298.941 722.68C300.141 721.373 301.554 720.373 303.181 719.68C304.834 718.96 306.634 718.6 308.581 718.6C310.528 718.6 312.314 718.96 313.941 719.68C315.594 720.373 317.021 721.373 318.221 722.68C319.421 723.96 320.341 725.48 320.981 727.24C321.648 728.973 321.981 730.893 321.981 733ZM319.421 733C319.421 730.627 318.954 728.547 318.021 726.76C317.114 724.947 315.848 723.533 314.221 722.52C312.594 721.507 310.714 721 308.581 721C306.474 721 304.594 721.507 302.941 722.52C301.314 723.533 300.034 724.947 299.101 726.76C298.194 728.547 297.741 730.627 297.741 733C297.741 735.373 298.194 737.467 299.101 739.28C300.034 741.067 301.314 742.467 302.941 743.48C304.594 744.493 306.474 745 308.581 745C310.714 745 312.594 744.493 314.221 743.48C315.848 742.467 317.114 741.067 318.021 739.28C318.954 737.467 319.421 735.373 319.421 733ZM329.686 747C329.313 747 329.006 746.88 328.766 746.64C328.553 746.4 328.446 746.12 328.446 745.8V720.2C328.446 719.88 328.566 719.6 328.806 719.36C329.046 719.12 329.326 719 329.646 719H344.206C344.553 719 344.833 719.12 345.046 719.36C345.286 719.573 345.406 719.853 345.406 720.2C345.406 720.52 345.286 720.8 345.046 721.04C344.833 721.253 344.553 721.36 344.206 721.36H330.726L330.886 721.12V731.76L330.686 731.4H342.406C342.753 731.4 343.033 731.52 343.246 731.76C343.486 731.973 343.606 732.24 343.606 732.56C343.606 732.907 343.486 733.187 343.246 733.4C343.033 733.613 342.753 733.72 342.406 733.72H330.606L330.886 733.4V745.8C330.886 746.12 330.766 746.4 330.526 746.64C330.313 746.88 330.033 747 329.686 747ZM360.808 747C360.435 747 360.128 746.88 359.888 746.64C359.675 746.4 359.568 746.12 359.568 745.8V720.32H362.048V745.8C362.048 746.12 361.928 746.4 361.688 746.64C361.448 746.88 361.155 747 360.808 747ZM351.288 721.28C350.968 721.28 350.688 721.173 350.448 720.96C350.208 720.747 350.088 720.467 350.088 720.12C350.088 719.8 350.208 719.533 350.448 719.32C350.688 719.107 350.968 719 351.288 719H370.328C370.648 719 370.928 719.107 371.168 719.32C371.408 719.533 371.528 719.813 371.528 720.16C371.528 720.507 371.408 720.787 371.168 721C370.928 721.187 370.648 721.28 370.328 721.28H351.288ZM410.219 718.92C410.566 718.92 410.859 719.027 411.099 719.24C411.366 719.427 411.499 719.72 411.499 720.12C411.499 720.253 411.473 720.427 411.419 720.64L402.579 746.24C402.499 746.48 402.353 746.667 402.139 746.8C401.926 746.933 401.713 747 401.499 747C401.233 747 400.993 746.947 400.779 746.84C400.566 746.707 400.406 746.507 400.299 746.24L393.219 728.72L393.539 728.8L386.459 746.24C386.353 746.507 386.179 746.707 385.939 746.84C385.726 746.947 385.499 747 385.259 747C385.046 747 384.833 746.933 384.619 746.8C384.433 746.667 384.299 746.48 384.219 746.24L375.379 720.64C375.299 720.427 375.259 720.267 375.259 720.16C375.259 719.76 375.406 719.453 375.699 719.24C375.993 719.027 376.286 718.92 376.579 718.92C376.846 718.92 377.086 718.987 377.299 719.12C377.513 719.253 377.659 719.44 377.739 719.68L385.779 743.12L385.339 743.16L392.299 725.8C392.379 725.56 392.513 725.373 392.699 725.24C392.913 725.08 393.153 725.013 393.419 725.04C393.686 725.013 393.913 725.08 394.099 725.24C394.313 725.373 394.473 725.56 394.579 725.8L401.459 743.08L401.019 743.24L409.019 719.68C409.099 719.44 409.246 719.253 409.459 719.12C409.673 718.987 409.926 718.92 410.219 718.92ZM425.714 722.08L415.994 746.24C415.887 746.507 415.74 746.707 415.554 746.84C415.367 746.973 415.154 747.04 414.914 747.04C414.54 747.04 414.26 746.947 414.074 746.76C413.887 746.547 413.78 746.293 413.754 746C413.727 745.867 413.74 745.707 413.794 745.52L424.354 719.68C424.487 719.387 424.647 719.187 424.834 719.08C425.047 718.947 425.287 718.88 425.554 718.88C425.82 718.88 426.047 718.96 426.234 719.12C426.447 719.253 426.607 719.44 426.714 719.68L437.234 745.4C437.287 745.56 437.314 745.72 437.314 745.88C437.314 746.253 437.194 746.547 436.954 746.76C436.714 746.947 436.434 747.04 436.114 747.04C435.847 747.04 435.607 746.973 435.394 746.84C435.207 746.68 435.06 746.48 434.954 746.24L424.994 721.92L425.714 722.08ZM418.314 738.92L419.314 736.56H431.714L432.194 738.92H418.314ZM444.412 747C444.012 747 443.679 746.88 443.412 746.64C443.172 746.4 443.052 746.12 443.052 745.8V720.2C443.052 719.88 443.172 719.6 443.412 719.36C443.652 719.12 443.932 719 444.252 719H455.052C456.572 719 457.932 719.333 459.132 720C460.332 720.64 461.266 721.533 461.932 722.68C462.626 723.827 462.972 725.12 462.972 726.56C462.972 727.733 462.759 728.813 462.332 729.8C461.906 730.787 461.306 731.627 460.532 732.32C459.759 732.987 458.892 733.48 457.932 733.8L456.532 733.36C457.519 733.44 458.439 733.76 459.292 734.32C460.146 734.853 460.826 735.6 461.332 736.56C461.866 737.493 462.146 738.627 462.172 739.96C462.199 741.107 462.252 742 462.332 742.64C462.439 743.28 462.586 743.76 462.772 744.08C462.959 744.4 463.199 744.653 463.492 744.84C463.759 745 463.932 745.227 464.012 745.52C464.119 745.813 464.092 746.093 463.932 746.36C463.826 746.573 463.666 746.733 463.452 746.84C463.266 746.92 463.066 746.96 462.852 746.96C462.639 746.96 462.426 746.907 462.212 746.8C461.839 746.587 461.452 746.253 461.052 745.8C460.679 745.347 460.359 744.68 460.092 743.8C459.852 742.92 459.732 741.693 459.732 740.12C459.732 739.08 459.559 738.227 459.212 737.56C458.892 736.893 458.466 736.387 457.932 736.04C457.426 735.667 456.852 735.413 456.212 735.28C455.599 735.12 455.012 735.04 454.452 735.04H445.132L445.572 734.48V745.8C445.572 746.12 445.466 746.4 445.252 746.64C445.039 746.88 444.759 747 444.412 747ZM445.132 732.84H455.172C456.079 732.76 456.932 732.467 457.732 731.96C458.532 731.427 459.172 730.707 459.652 729.8C460.159 728.893 460.412 727.84 460.412 726.64C460.412 725.12 459.892 723.867 458.852 722.88C457.839 721.867 456.506 721.36 454.852 721.36H445.292L445.572 720.8V733.4L445.132 732.84ZM471.849 719H486.529C486.849 719 487.129 719.12 487.369 719.36C487.609 719.573 487.729 719.853 487.729 720.2C487.729 720.547 487.609 720.827 487.369 721.04C487.129 721.253 486.849 721.36 486.529 721.36H472.769L473.169 720.68V731.92L472.729 731.4H484.729C485.049 731.4 485.329 731.52 485.569 731.76C485.809 732 485.929 732.28 485.929 732.6C485.929 732.947 485.809 733.227 485.569 733.44C485.329 733.653 485.049 733.76 484.729 733.76H472.809L473.169 733.36V744.88L472.969 744.64H486.529C486.849 744.64 487.129 744.76 487.369 745C487.609 745.24 487.729 745.52 487.729 745.84C487.729 746.187 487.609 746.467 487.369 746.68C487.129 746.893 486.849 747 486.529 747H471.849C471.529 747 471.249 746.88 471.009 746.64C470.769 746.4 470.649 746.12 470.649 745.8V720.2C470.649 719.88 470.769 719.6 471.009 719.36C471.249 719.12 471.529 719 471.849 719ZM513.641 747.4C511.614 747.427 509.854 747.107 508.361 746.44C506.868 745.773 505.441 744.773 504.081 743.44C503.948 743.333 503.828 743.2 503.721 743.04C503.641 742.88 503.601 742.693 503.601 742.48C503.601 742.16 503.721 741.867 503.961 741.6C504.228 741.333 504.521 741.2 504.841 741.2C505.161 741.2 505.454 741.333 505.721 741.6C506.761 742.72 507.934 743.573 509.241 744.16C510.574 744.747 512.001 745.04 513.521 745.04C514.801 745.04 515.934 744.84 516.921 744.44C517.934 744.04 518.734 743.467 519.321 742.72C519.908 741.973 520.201 741.107 520.201 740.12C520.201 738.893 519.868 737.907 519.201 737.16C518.534 736.387 517.654 735.76 516.561 735.28C515.468 734.773 514.254 734.32 512.921 733.92C511.828 733.6 510.788 733.24 509.801 732.84C508.814 732.413 507.934 731.907 507.161 731.32C506.388 730.707 505.788 729.96 505.361 729.08C504.934 728.2 504.721 727.133 504.721 725.88C504.721 724.467 505.094 723.213 505.841 722.12C506.588 721.027 507.641 720.173 509.001 719.56C510.388 718.92 511.988 718.6 513.801 718.6C515.374 718.6 516.881 718.867 518.321 719.4C519.788 719.933 520.948 720.72 521.801 721.76C522.201 722.187 522.401 722.573 522.401 722.92C522.401 723.187 522.268 723.453 522.001 723.72C521.734 723.987 521.441 724.12 521.121 724.12C520.854 724.12 520.628 724.027 520.441 723.84C519.988 723.28 519.414 722.787 518.721 722.36C518.028 721.907 517.254 721.56 516.401 721.32C515.574 721.08 514.708 720.96 513.801 720.96C512.548 720.96 511.414 721.16 510.401 721.56C509.414 721.933 508.628 722.48 508.041 723.2C507.481 723.92 507.201 724.787 507.201 725.8C507.201 726.92 507.521 727.84 508.161 728.56C508.801 729.28 509.641 729.88 510.681 730.36C511.721 730.813 512.828 731.24 514.001 731.64C515.148 731.96 516.241 732.333 517.281 732.76C518.348 733.16 519.281 733.667 520.081 734.28C520.908 734.893 521.548 735.667 522.001 736.6C522.481 737.533 522.721 738.707 522.721 740.12C522.721 741.48 522.334 742.707 521.561 743.8C520.788 744.893 519.721 745.76 518.361 746.4C517.028 747.04 515.454 747.373 513.641 747.4ZM530.382 719H545.062C545.382 719 545.662 719.12 545.902 719.36C546.142 719.573 546.262 719.853 546.262 720.2C546.262 720.547 546.142 720.827 545.902 721.04C545.662 721.253 545.382 721.36 545.062 721.36H531.302L531.702 720.68V731.92L531.262 731.4H543.262C543.582 731.4 543.862 731.52 544.102 731.76C544.342 732 544.462 732.28 544.462 732.6C544.462 732.947 544.342 733.227 544.102 733.44C543.862 733.653 543.582 733.76 543.262 733.76H531.342L531.702 733.36V744.88L531.502 744.64H545.062C545.382 744.64 545.662 744.76 545.902 745C546.142 745.24 546.262 745.52 546.262 745.84C546.262 746.187 546.142 746.467 545.902 746.68C545.662 746.893 545.382 747 545.062 747H530.382C530.062 747 529.782 746.88 529.542 746.64C529.302 746.4 529.182 746.12 529.182 745.8V720.2C529.182 719.88 529.302 719.6 529.542 719.36C529.782 719.12 530.062 719 530.382 719ZM554.076 747C553.676 747 553.343 746.88 553.076 746.64C552.836 746.4 552.716 746.12 552.716 745.8V720.2C552.716 719.88 552.836 719.6 553.076 719.36C553.316 719.12 553.596 719 553.916 719H564.716C566.236 719 567.596 719.333 568.796 720C569.996 720.64 570.93 721.533 571.596 722.68C572.29 723.827 572.636 725.12 572.636 726.56C572.636 727.733 572.423 728.813 571.996 729.8C571.57 730.787 570.97 731.627 570.196 732.32C569.423 732.987 568.556 733.48 567.596 733.8L566.196 733.36C567.183 733.44 568.103 733.76 568.956 734.32C569.81 734.853 570.49 735.6 570.996 736.56C571.53 737.493 571.81 738.627 571.836 739.96C571.863 741.107 571.916 742 571.996 742.64C572.103 743.28 572.25 743.76 572.436 744.08C572.623 744.4 572.863 744.653 573.156 744.84C573.423 745 573.596 745.227 573.676 745.52C573.783 745.813 573.756 746.093 573.596 746.36C573.49 746.573 573.33 746.733 573.116 746.84C572.93 746.92 572.73 746.96 572.516 746.96C572.303 746.96 572.09 746.907 571.876 746.8C571.503 746.587 571.116 746.253 570.716 745.8C570.343 745.347 570.023 744.68 569.756 743.8C569.516 742.92 569.396 741.693 569.396 740.12C569.396 739.08 569.223 738.227 568.876 737.56C568.556 736.893 568.13 736.387 567.596 736.04C567.09 735.667 566.516 735.413 565.876 735.28C565.263 735.12 564.676 735.04 564.116 735.04H554.796L555.236 734.48V745.8C555.236 746.12 555.13 746.4 554.916 746.64C554.703 746.88 554.423 747 554.076 747ZM554.796 732.84H564.836C565.743 732.76 566.596 732.467 567.396 731.96C568.196 731.427 568.836 730.707 569.316 729.8C569.823 728.893 570.076 727.84 570.076 726.64C570.076 725.12 569.556 723.867 568.516 722.88C567.503 721.867 566.17 721.36 564.516 721.36H554.956L555.236 720.8V733.4L554.796 732.84ZM599.967 718.96C600.341 718.96 600.634 719.067 600.847 719.28C601.087 719.493 601.207 719.76 601.207 720.08C601.207 720.267 601.167 720.467 601.087 720.68L590.407 746.2C590.274 746.467 590.101 746.667 589.887 746.8C589.674 746.933 589.461 747 589.247 747C589.007 747 588.781 746.933 588.567 746.8C588.354 746.667 588.207 746.48 588.127 746.24L577.487 720.76C577.461 720.68 577.434 720.587 577.407 720.48C577.381 720.373 577.367 720.253 577.367 720.12C577.367 719.773 577.487 719.493 577.727 719.28C577.994 719.067 578.261 718.96 578.527 718.96C579.087 718.96 579.487 719.253 579.727 719.84L589.727 743.76H589.007L598.847 719.76C599.114 719.227 599.487 718.96 599.967 718.96ZM609.649 745.76C609.622 746.107 609.475 746.4 609.209 746.64C608.969 746.88 608.689 747 608.369 747C607.995 747 607.689 746.88 607.449 746.64C607.235 746.4 607.129 746.107 607.129 745.76V720.24C607.129 719.893 607.249 719.6 607.489 719.36C607.729 719.12 608.035 719 608.409 719C608.729 719 609.009 719.12 609.249 719.36C609.515 719.6 609.649 719.893 609.649 720.24V745.76ZM638.369 721.08C638.689 721.293 638.875 721.573 638.929 721.92C638.982 722.24 638.902 722.56 638.689 722.88C638.502 723.12 638.262 723.253 637.969 723.28C637.675 723.307 637.395 723.253 637.129 723.12C636.115 722.453 635.022 721.933 633.849 721.56C632.702 721.187 631.462 721 630.129 721C628.502 721 626.982 721.293 625.569 721.88C624.182 722.44 622.969 723.267 621.929 724.36C620.889 725.427 620.075 726.693 619.489 728.16C618.929 729.627 618.649 731.24 618.649 733C618.649 734.813 618.942 736.467 619.529 737.96C620.115 739.427 620.929 740.693 621.969 741.76C623.035 742.827 624.262 743.64 625.649 744.2C627.035 744.76 628.529 745.04 630.129 745.04C631.435 745.04 632.662 744.853 633.809 744.48C634.982 744.107 636.075 743.6 637.089 742.96C637.355 742.8 637.635 742.747 637.929 742.8C638.249 742.827 638.502 742.973 638.689 743.24C638.929 743.533 639.009 743.853 638.929 744.2C638.875 744.52 638.702 744.773 638.409 744.96C637.742 745.387 636.955 745.787 636.049 746.16C635.142 746.533 634.182 746.827 633.169 747.04C632.155 747.28 631.142 747.4 630.129 747.4C628.209 747.4 626.409 747.053 624.729 746.36C623.049 745.667 621.555 744.693 620.249 743.44C618.942 742.16 617.915 740.64 617.169 738.88C616.449 737.12 616.089 735.16 616.089 733C616.089 730.92 616.449 729.013 617.169 727.28C617.889 725.52 618.889 724 620.169 722.72C621.449 721.44 622.942 720.44 624.649 719.72C626.355 719 628.182 718.64 630.129 718.64C631.649 718.64 633.115 718.853 634.529 719.28C635.942 719.707 637.222 720.307 638.369 721.08ZM646.062 719H660.742C661.062 719 661.342 719.12 661.582 719.36C661.822 719.573 661.942 719.853 661.942 720.2C661.942 720.547 661.822 720.827 661.582 721.04C661.342 721.253 661.062 721.36 660.742 721.36H646.982L647.382 720.68V731.92L646.942 731.4H658.942C659.262 731.4 659.542 731.52 659.782 731.76C660.022 732 660.142 732.28 660.142 732.6C660.142 732.947 660.022 733.227 659.782 733.44C659.542 733.653 659.262 733.76 658.942 733.76H647.022L647.382 733.36V744.88L647.182 744.64H660.742C661.062 744.64 661.342 744.76 661.582 745C661.822 745.24 661.942 745.52 661.942 745.84C661.942 746.187 661.822 746.467 661.582 746.68C661.342 746.893 661.062 747 660.742 747H646.062C645.742 747 645.462 746.88 645.222 746.64C644.982 746.4 644.862 746.12 644.862 745.8V720.2C644.862 719.88 644.982 719.6 645.222 719.36C645.462 719.12 645.742 719 646.062 719ZM676.116 747.4C674.089 747.427 672.329 747.107 670.836 746.44C669.343 745.773 667.916 744.773 666.556 743.44C666.423 743.333 666.303 743.2 666.196 743.04C666.116 742.88 666.076 742.693 666.076 742.48C666.076 742.16 666.196 741.867 666.436 741.6C666.703 741.333 666.996 741.2 667.316 741.2C667.636 741.2 667.929 741.333 668.196 741.6C669.236 742.72 670.409 743.573 671.716 744.16C673.049 744.747 674.476 745.04 675.996 745.04C677.276 745.04 678.409 744.84 679.396 744.44C680.409 744.04 681.209 743.467 681.796 742.72C682.383 741.973 682.676 741.107 682.676 740.12C682.676 738.893 682.343 737.907 681.676 737.16C681.009 736.387 680.129 735.76 679.036 735.28C677.943 734.773 676.729 734.32 675.396 733.92C674.303 733.6 673.263 733.24 672.276 732.84C671.289 732.413 670.409 731.907 669.636 731.32C668.863 730.707 668.263 729.96 667.836 729.08C667.409 728.2 667.196 727.133 667.196 725.88C667.196 724.467 667.569 723.213 668.316 722.12C669.063 721.027 670.116 720.173 671.476 719.56C672.863 718.92 674.463 718.6 676.276 718.6C677.849 718.6 679.356 718.867 680.796 719.4C682.263 719.933 683.423 720.72 684.276 721.76C684.676 722.187 684.876 722.573 684.876 722.92C684.876 723.187 684.743 723.453 684.476 723.72C684.209 723.987 683.916 724.12 683.596 724.12C683.329 724.12 683.103 724.027 682.916 723.84C682.463 723.28 681.889 722.787 681.196 722.36C680.503 721.907 679.729 721.56 678.876 721.32C678.049 721.08 677.183 720.96 676.276 720.96C675.023 720.96 673.889 721.16 672.876 721.56C671.889 721.933 671.103 722.48 670.516 723.2C669.956 723.92 669.676 724.787 669.676 725.8C669.676 726.92 669.996 727.84 670.636 728.56C671.276 729.28 672.116 729.88 673.156 730.36C674.196 730.813 675.303 731.24 676.476 731.64C677.623 731.96 678.716 732.333 679.756 732.76C680.823 733.16 681.756 733.667 682.556 734.28C683.383 734.893 684.023 735.667 684.476 736.6C684.956 737.533 685.196 738.707 685.196 740.12C685.196 741.48 684.809 742.707 684.036 743.8C683.263 744.893 682.196 745.76 680.836 746.4C679.503 747.04 677.929 747.373 676.116 747.4Z" fill="#A2A0A2"/>
</g>
</g>
</g>
<defs>
<filter id="filter0_d_4_45" x="232" y="219" width="438.5" height="341.129" filterUnits="userSpaceOnUse" color-interpolation-filters="sRGB">
<feFlood flood-opacity="0" result="BackgroundImageFix"/>
<feColorMatrix in="SourceAlpha" type="matrix" values="0 0 0 0 0 0 0 0 0 0 0 0 0 0 0 0 0 0 127 0" result="hardAlpha"/>
<feOffset dx="-10" dy="10"/>
<feGaussianBlur stdDeviation="3"/>
<feComposite in2="hardAlpha" operator="out"/>
<feColorMatrix type="matrix" values="0 0 0 0 0 0 0 0 0 0 0 0 0 0 0 0 0 0 0.5 0"/>
<feBlend mode="normal" in2="BackgroundImageFix" result="effect1_dropShadow_4_45"/>
<feBlend mode="normal" in="SourceGraphic" in2="effect1_dropShadow_4_45" result="shape"/>
</filter>
<filter id="filter1_i_4_45" x="248" y="219" width="424.5" height="327.129" filterUnits="userSpaceOnUse" color-interpolation-filters="sRGB">
<feFlood flood-opacity="0" result="BackgroundImageFix"/>
<feBlend mode="normal" in="SourceGraphic" in2="BackgroundImageFix" result="shape"/>
<feColorMatrix in="SourceAlpha" type="matrix" values="0 0 0 0 0 0 0 0 0 0 0 0 0 0 0 0 0 0 127 0" result="hardAlpha"/>
<feOffset dx="2" dy="2"/>
<feGaussianBlur stdDeviation="2"/>
<feComposite in2="hardAlpha" operator="arithmetic" k2="-1" k3="1"/>
<feColorMatrix type="matrix" values="0 0 0 0 1 0 0 0 0 1 0 0 0 0 1 0 0 0 0.5 0"/>
<feBlend mode="normal" in2="shape" result="effect1_innerShadow_4_45"/>
</filter>
<filter id="filter2_i_4_45" x="147.672" y="582.14" width="666.192" height="167.3" filterUnits="userSpaceOnUse" color-interpolation-filters="sRGB">
<feFlood flood-opacity="0" result="BackgroundImageFix"/>
<feBlend mode="normal" in="SourceGraphic" in2="BackgroundImageFix" result="shape"/>
<feColorMatrix in="SourceAlpha" type="matrix" values="0 0 0 0 0 0 0 0 0 0 0 0 0 0 0 0 0 0 127 0" result="hardAlpha"/>
<feOffset dx="2" dy="2"/>
<feGaussianBlur stdDeviation="1"/>
<feComposite in2="hardAlpha" operator="arithmetic" k2="-1" k3="1"/>
<feColorMatrix type="matrix" values="0 0 0 0 1 0 0 0 0 1 0 0 0 0 1 0 0 0 0.5 0"/>
<feBlend mode="normal" in2="shape" result="effect1_innerShadow_4_45"/>
</filter>
<filter id="filter3_d_4_45" x="146.672" y="581.14" width="676.192" height="116.25" filterUnits="userSpaceOnUse" color-interpolation-filters="sRGB">
<feFlood flood-opacity="0" result="BackgroundImageFix"/>
<feColorMatrix in="SourceAlpha" type="matrix" values="0 0 0 0 0 0 0 0 0 0 0 0 0 0 0 0 0 0 127 0" result="hardAlpha"/>
<feOffset dx="5" dy="5"/>
<feGaussianBlur stdDeviation="3"/>
<feComposite in2="hardAlpha" operator="out"/>
<feColorMatrix type="matrix" values="0 0 0 0 0 0 0 0 0 0 0 0 0 0 0 0 0 0 1 0"/>
<feBlend mode="normal" in2="BackgroundImageFix" result="effect1_dropShadow_4_45"/>
<feBlend mode="normal" in="SourceGraphic" in2="effect1_dropShadow_4_45" result="shape"/>
</filter>
<filter id="filter4_d_4_45" x="270.44" y="717.6" width="425.756" height="40.84" filterUnits="userSpaceOnUse" color-interpolation-filters="sRGB">
<feFlood flood-opacity="0" result="BackgroundImageFix"/>
<feColorMatrix in="SourceAlpha" type="matrix" values="0 0 0 0 0 0 0 0 0 0 0 0 0 0 0 0 0 0 127 0" result="hardAlpha"/>
<feOffset dx="5" dy="5"/>
<feGaussianBlur stdDeviation="3"/>
<feComposite in2="hardAlpha" operator="out"/>
<feColorMatrix type="matrix" values="0 0 0 0 0 0 0 0 0 0 0 0 0 0 0 0 0 0 1 0"/>
<feBlend mode="normal" in2="BackgroundImageFix" result="effect1_dropShadow_4_45"/>
<feBlend mode="normal" in="SourceGraphic" in2="effect1_dropShadow_4_45" result="shape"/>
</filter>
<linearGradient id="paint0_linear_4_45" x1="-490.609" y1="1376.95" x2="1109.46" y2="-380.131" gradientUnits="userSpaceOnUse">
<stop offset="0.296413" stop-color="#040621"/>
<stop offset="0.340695" stop-color="#040B27"/>
<stop offset="0.410499" stop-color="#061937"/>
<stop offset="0.561364" stop-color="#0B223A"/>
<stop offset="0.699094" stop-color="#212E46"/>
<stop offset="0.859587" stop-color="#30364E"/>
<stop offset="1" stop-color="#A7AAB4"/>
</linearGradient>
<linearGradient id="paint1_linear_4_45" x1="670.5" y1="381.564" x2="248" y2="381.564" gradientUnits="userSpaceOnUse">
<stop offset="0.00166656" stop-color="#E6E6E6"/>
<stop offset="1" stop-color="#908E91"/>
</linearGradient>
<clipPath id="clip0_4_45">
<rect width="957" height="957" fill="white"/>
</clipPath>
</defs>
</svg>
